# xmcd
#
# Track frame offsets:
# 150
# 17024
# 37023
# 60477
# 71782
# 89829
# 110719
# 139077
# 157237
# 176153
# 199042
# 222161
#
# Disc length: 3063 seconds
#
# Revision: 0
# Processed by: cddbd v1.5.2PL0 Copyright (c) Steve Scherf et al.
# Submitted via: Audion 3.0.2 (http://www.panic.com/audion/)
#
DISCID=ba0bf50c
DTITLE=max and gillian - i feel great. i feel fine. i feel awesome all the time
DYEAR=1900
DGENRE=
TTITLE0=all is well
TTITLE1=afterglow
TTITLE2=inadvertent enemy
TTITLE3=i fell asleep
TTITLE4=stupid things
TTITLE5=(i live in a) world so wild
TTITLE6=turn the lights off
TTITLE7=silicone
TTITLE8=seven shadows
TTITLE9=sun settling symmetry
TTITLE10=change of pace
TTITLE11=despondent bones
EXTD=
EXTT0=
EXTT1=
EXTT2=
EXTT3=
EXTT4=
EXTT5=
EXTT6=
EXTT7=
EXTT8=
EXTT9=
EXTT10=
EXTT11=
PLAYORDER=
